<svg width="30" height="30" viewBox="0 0 30 30" fill="none" xmlns="http://www.w3.org/2000/svg">
<path d="M8.05576 0.299757L6.55296 1.80266C6.35228 2.00292 6.25226 2.23361 6.25226 2.49441C6.25226 2.75458 6.35228 2.98516 6.55296 3.18542L18.3667 14.9998L6.55328 26.8137C6.3526 27.0141 6.25257 27.2447 6.25257 27.5052C6.25257 27.7658 6.3526 27.9963 6.55328 28.1966L8.05618 29.6993C8.25644 29.9 8.48702 30 8.74761 30C9.00799 30 9.23858 29.8997 9.43884 29.6993L23.4471 15.6913C23.6475 15.491 23.7476 15.2603 23.7476 14.9998C23.7476 14.7394 23.6475 14.5091 23.4471 14.3089L9.43884 0.299757C9.23847 0.0994968 9.00789 0 8.74761 0C8.48702 0 8.25644 0.0994968 8.05576 0.299757Z" fill="#57A4FF"/>
</svg>
