<svg width="14" height="22" viewBox="0 0 14 22" fill="none" xmlns="http://www.w3.org/2000/svg">
<path d="M1.90753 0.219822L0.805479 1.32195C0.658312 1.46881 0.584961 1.63798 0.584961 1.82923C0.584961 2.02003 0.658312 2.18912 0.805479 2.33598L9.46891 10.9999L0.80571 19.6634C0.658544 19.8103 0.585192 19.9794 0.585192 20.1705C0.585192 20.3616 0.658544 20.5307 0.80571 20.6775L1.90784 21.7795C2.05469 21.9266 2.22379 22 2.41489 22C2.60583 22 2.77493 21.9264 2.92179 21.7795L13.1945 11.5069C13.3415 11.3601 13.4149 11.1909 13.4149 10.9999C13.4149 10.8089 13.3415 10.64 13.1945 10.4932L2.92179 0.219822C2.77485 0.0729637 2.60576 0 2.41489 0C2.22379 0 2.05469 0.0729637 1.90753 0.219822Z" fill="#57A4FF"/>
</svg>
