<svg width="14" height="22" viewBox="0 0 14 22" fill="none" xmlns="http://www.w3.org/2000/svg">
<path d="M12.0925 21.7802L13.1945 20.6781C13.3417 20.5312 13.415 20.362 13.415 20.1708C13.415 19.98 13.3417 19.8109 13.1945 19.664L4.53109 11.0001L13.1943 2.3366C13.3415 2.18966 13.4148 2.02057 13.4148 1.82954C13.4148 1.63844 13.3415 1.46935 13.1943 1.32249L12.0922 0.220518C11.9453 0.0733516 11.7762 0 11.5851 0C11.3942 0 11.2251 0.0735832 11.0782 0.220518L0.805454 10.4931C0.65852 10.6399 0.585091 10.8091 0.585091 11.0001C0.585091 11.1911 0.65852 11.36 0.805454 11.5068L11.0782 21.7802C11.2251 21.927 11.3942 22 11.5851 22C11.7762 22 11.9453 21.927 12.0925 21.7802Z" fill="#57A4FF"/>
</svg>
