<svg width="30" height="30" viewBox="0 0 30 30" fill="none" xmlns="http://www.w3.org/2000/svg">
<path d="M21.9442 29.7002L23.447 28.1973C23.6477 27.9971 23.7477 27.7664 23.7477 27.5056C23.7477 27.2454 23.6477 27.0148 23.447 26.8146L11.6333 15.0002L23.4467 3.18627C23.6474 2.9859 23.7474 2.75532 23.7474 2.49483C23.7474 2.23424 23.6474 2.00366 23.4467 1.8034L21.9438 0.300707C21.7436 0.100025 21.513 0 21.2524 0C20.992 0 20.7614 0.100341 20.5612 0.300707L6.55285 14.3087C6.35249 14.509 6.25236 14.7397 6.25236 15.0002C6.25236 15.2606 6.35249 15.4909 6.55285 15.6911L20.5612 29.7002C20.7615 29.9005 20.9921 30 21.2524 30C21.513 30 21.7436 29.9005 21.9442 29.7002Z" fill="#57A4FF"/>
</svg>
