<svg width="40" height="40" viewBox="0 0 40 40" fill="none" xmlns="http://www.w3.org/2000/svg">
<path d="M26.875 21.875V30L23.125 26.875V30L28.125 34.375L33.125 30V26.875L29.375 30V21.875H26.875Z" fill="#9BC9FF"/>
<path d="M8.125 28.125H18.125C18.1246 26.3694 18.5864 24.6447 19.4639 23.1242C20.3414 21.6037 21.6038 20.341 23.124 19.4631C24.6443 18.5851 26.3689 18.1229 28.1244 18.1228C29.88 18.1227 31.6046 18.5847 33.125 19.4625V9.375C33.124 9.04378 32.992 8.72642 32.7578 8.49221C32.5236 8.258 32.2062 8.12599 31.875 8.125H8.125C7.46196 8.125 6.82607 8.38839 6.35723 8.85723C5.88839 9.32607 5.625 9.96196 5.625 10.625V25.625C5.625 26.288 5.88839 26.9239 6.35723 27.3928C6.82607 27.8616 7.46196 28.125 8.125 28.125Z" fill="#9BC9FF"/>
<path d="M33.75 19.125V9.375C33.7484 8.98859 33.6274 8.61211 33.4037 8.29706C33.1799 7.98202 32.8643 7.7438 32.5 7.615V5.625C32.5 5.12772 32.3025 4.65081 31.9508 4.29918C31.5992 3.94754 31.1223 3.75 30.625 3.75H13.125C12.9592 3.75 12.8003 3.68415 12.6831 3.56694C12.5658 3.44973 12.5 3.29076 12.5 3.125C12.5 2.62772 12.3025 2.15081 11.9508 1.79917C11.5992 1.44754 11.1223 1.25 10.625 1.25H3.125C2.62772 1.25 2.15081 1.44754 1.79917 1.79917C1.44754 2.15081 1.25 2.62772 1.25 3.125V26.875C1.25 27.3723 1.44754 27.8492 1.79917 28.2008C2.15081 28.5525 2.62772 28.75 3.125 28.75H17.5319C17.6374 30.5695 18.2095 32.3312 19.193 33.8656C20.1766 35.3999 21.5386 36.6553 23.1478 37.5108C24.7571 38.3664 26.5595 38.7933 28.3816 38.7505C30.2036 38.7077 31.984 38.1966 33.5513 37.2664C35.1186 36.3363 36.4201 35.0183 37.3305 33.4395C38.241 31.8606 38.7297 30.074 38.7497 28.2516C38.7696 26.4291 38.3202 24.6322 37.4445 23.0338C36.5689 21.4354 35.2966 20.0893 33.75 19.125ZM2.5 26.875V3.125C2.5 2.95924 2.56585 2.80027 2.68306 2.68306C2.80027 2.56585 2.95924 2.5 3.125 2.5H10.625C10.7908 2.5 10.9497 2.56585 11.0669 2.68306C11.1842 2.80027 11.25 2.95924 11.25 3.125C11.25 3.62228 11.4475 4.09919 11.7992 4.45083C12.1508 4.80246 12.6277 5 13.125 5H30.625C30.7908 5 30.9497 5.06585 31.0669 5.18306C31.1841 5.30027 31.25 5.45924 31.25 5.625V7.5H8.125C7.2965 7.50099 6.50222 7.83055 5.91639 8.41639C5.33055 9.00222 5.00099 9.7965 5 10.625V25.625C5.0023 26.3034 5.22762 26.9623 5.64125 27.5H3.125C2.95924 27.5 2.80027 27.4342 2.68306 27.3169C2.56585 27.1997 2.5 27.0408 2.5 26.875ZM6.25 25.625V10.625C6.25 10.1277 6.44754 9.65081 6.79917 9.29918C7.1508 8.94754 7.62772 8.75 8.125 8.75H31.875C32.0408 8.75 32.1997 8.81585 32.3169 8.93306C32.4341 9.05027 32.5 9.20924 32.5 9.375V18.4538C30.9321 17.7391 29.2135 17.4178 27.4933 17.5177C25.7732 17.6175 24.1033 18.1356 22.6286 19.0268C21.154 19.9181 19.919 21.1556 19.0308 22.6322C18.1427 24.1087 17.6281 25.7796 17.5319 27.5H8.125C7.62772 27.5 7.1508 27.3025 6.79917 26.9508C6.44754 26.5992 6.25 26.1223 6.25 25.625ZM28.125 37.5C26.2708 37.5 24.4582 36.9502 22.9165 35.92C21.3748 34.8899 20.1732 33.4257 19.4636 31.7127C18.7541 29.9996 18.5684 28.1146 18.9301 26.296C19.2919 24.4775 20.1848 22.807 21.4959 21.4959C22.807 20.1848 24.4775 19.2919 26.296 18.9301C28.1146 18.5684 29.9996 18.7541 31.7127 19.4636C33.4257 20.1732 34.8899 21.3748 35.92 22.9165C36.9502 24.4582 37.5 26.2708 37.5 28.125C37.4972 30.6105 36.5086 32.9935 34.751 34.751C32.9935 36.5086 30.6105 37.4972 28.125 37.5Z" fill="#57A4FF"/>
<path d="M33.39 26.3088C33.2824 26.2585 33.1627 26.2399 33.045 26.2551C32.9272 26.2704 32.8162 26.3189 32.725 26.395L30 28.6656V21.875C30 21.7092 29.9342 21.5503 29.8169 21.4331C29.6997 21.3158 29.5408 21.25 29.375 21.25H26.875C26.7092 21.25 26.5503 21.3158 26.4331 21.4331C26.3158 21.5503 26.25 21.7092 26.25 21.875V28.6656L23.525 26.395C23.4337 26.319 23.3227 26.2706 23.2049 26.2554C23.0872 26.2402 22.9675 26.2589 22.8599 26.3092C22.7524 26.3596 22.6614 26.4396 22.5977 26.5398C22.5339 26.64 22.5 26.7562 22.5 26.875V30C22.5 30.089 22.519 30.177 22.5558 30.258C22.5925 30.3391 22.6462 30.4113 22.7131 30.47L27.7131 34.845C27.8271 34.9449 27.9735 34.9999 28.125 34.9999C28.2765 34.9999 28.4229 34.9449 28.5369 34.845L33.5369 30.47C33.6038 30.4113 33.6575 30.3391 33.6942 30.258C33.731 30.177 33.75 30.089 33.75 30V26.875C33.75 26.7562 33.7162 26.6398 33.6524 26.5395C33.5887 26.4392 33.4976 26.3591 33.39 26.3088ZM32.5 29.7163L28.125 33.5444L23.75 29.7163V28.2094L26.475 30.48C26.5663 30.556 26.6773 30.6044 26.7951 30.6196C26.9128 30.6348 27.0325 30.6161 27.1401 30.5658C27.2476 30.5154 27.3386 30.4354 27.4023 30.3352C27.4661 30.235 27.5 30.1188 27.5 30V22.5H28.75V30C28.75 30.1188 28.7839 30.235 28.8477 30.3352C28.9114 30.4354 29.0024 30.5154 29.1099 30.5658C29.2175 30.6161 29.3372 30.6348 29.4549 30.6196C29.5727 30.6044 29.6837 30.556 29.775 30.48L32.5 28.2094V29.7163Z" fill="#57A4FF"/>
<path d="M8.125 10C7.95924 10 7.80027 10.0658 7.68306 10.1831C7.56585 10.3003 7.5 10.4592 7.5 10.625V13.125H8.75V11.25H10.625V10H8.125Z" fill="#57A4FF"/>
<path d="M7.5 14.375H8.75V15.625H7.5V14.375Z" fill="#57A4FF"/>
</svg>
