<svg width="60" height="66" viewBox="0 0 60 66" fill="none" xmlns="http://www.w3.org/2000/svg">
<path d="M30.002 58.8891L13.845 35.5557C7.81463 27.5151 8.6142 14.1335 15.721 7.02663C23.6081 -0.86044 36.3957 -0.86044 44.2828 7.02663C51.3897 14.1335 52.1893 27.5152 46.159 35.5557L30.002 58.8891Z" fill="#9BC9FF"/>
<path d="M40.9497 7.02616C36.8833 2.96491 31.2724 0.839128 25.5358 1.18612C25.4742 1.41382 25.3365 1.61362 25.1458 1.75237C23.901 2.71167 22.4193 3.31507 20.8584 3.49823C20.1684 3.6235 19.495 3.82718 18.8511 4.10538C18.5066 5.56331 17.7178 6.87827 16.5938 7.86874C14.7871 9.56983 13.0727 11.3664 11.4582 13.2508C11.2951 13.6401 11.1533 14.0381 11.0336 14.4427C10.6344 16.1268 10.3239 17.8306 10.1032 19.5472C10.2407 21.0738 10.283 22.5942 10.2988 24.1339C10.1993 25.4477 10.2046 26.7673 10.3146 28.0803L10.316 28.083C10.3747 28.2439 10.417 28.3907 10.4679 28.5445C12.944 33.9858 15.8209 39.2357 19.0749 44.2509C21.7412 48.0977 26.3399 52.3463 28.0647 56.8729L42.8258 35.5553C48.8561 27.5148 48.0565 14.1331 40.9497 7.02616Z" fill="#E3E7F2"/>
<path d="M30.1985 27.7777C33.8804 27.7777 36.8652 24.7929 36.8652 21.111C36.8652 17.4291 33.8804 14.4443 30.1985 14.4443C26.5166 14.4443 23.5318 17.4291 23.5318 21.111C23.5318 24.7929 26.5166 27.7777 30.1985 27.7777Z" fill="#9BC9FF"/>
<path d="M28.5317 27.7777C31.2932 27.7777 33.5318 24.7929 33.5318 21.111C33.5318 17.4291 31.2932 14.4443 28.5317 14.4443C25.7703 14.4443 23.5317 17.4291 23.5317 21.111C23.5317 24.7929 25.7703 27.7777 28.5317 27.7777Z" fill="white"/>
<path d="M16.1462 7.02607C20.4226 2.74228 26.398 0.607476 32.4206 1.21158C27.5413 1.50302 22.9377 3.57138 19.4796 7.02607H19.4795C12.3727 14.133 11.573 27.5147 17.6035 35.5552L32.0938 56.4817L30.4271 58.8886L14.2702 35.5552C8.23983 27.5147 9.0394 14.133 16.1462 7.02607Z" fill="white"/>
<path d="M30.1985 28.889C25.903 28.889 22.4208 25.4067 22.4208 21.1112C22.4208 16.8157 25.903 13.3335 30.1985 13.3335C34.494 13.3335 37.9762 16.8157 37.9762 21.1112C37.9711 25.4045 34.4919 28.8837 30.1985 28.889ZM30.1985 15.5556C27.1303 15.5556 24.643 18.0429 24.643 21.1111C24.643 24.1793 27.1303 26.6666 30.1985 26.6666C33.2667 26.6666 35.754 24.1793 35.754 21.1111C35.7504 18.0444 33.2652 15.5591 30.1985 15.5556Z" fill="#57A4FF"/>
<path d="M30.0021 60C29.6375 60 29.296 59.8212 29.0885 59.5215L12.9319 36.1882C6.56248 27.6987 7.48803 13.6882 14.936 6.24141C18.9315 2.24508 24.3511 0 30.0021 0C35.6531 0 41.0727 2.24508 45.0683 6.24129C52.5163 13.6881 53.4418 27.6986 47.0475 36.2217L30.9157 59.5215C30.708 59.8212 30.3667 60 30.0021 60ZM30.0021 2.22223C24.9377 2.20863 20.0783 4.22156 16.5071 7.81254C9.78514 14.5335 8.95721 27.1864 14.7341 34.8894L30.0021 56.937L45.2451 34.923C51.047 27.1864 50.219 14.5335 43.4971 7.81254C39.9259 4.22156 35.0665 2.20863 30.0021 2.22223Z" fill="#57A4FF"/>
<g filter="url(#filter0_f)">
<ellipse cx="30" cy="60.5" rx="13" ry="1.5" fill="black" fill-opacity="0.15"/>
</g>
<defs>
<filter id="filter0_f" x="13" y="55" width="34" height="11" filterUnits="userSpaceOnUse" color-interpolation-filters="sRGB">
<feFlood flood-opacity="0" result="BackgroundImageFix"/>
<feBlend mode="normal" in="SourceGraphic" in2="BackgroundImageFix" result="shape"/>
<feGaussianBlur stdDeviation="2" result="effect1_foregroundBlur"/>
</filter>
</defs>
</svg>
